<svg xmlns="http://www.w3.org/2000/svg" viewBox="0 0 512 512">
  <rect width="512" height="512" rx="108" fill="#0f766e"/>
  <path fill="#ffffff" d="M132 142c0-22 18-40 40-40h168c22 0 40 18 40 40v228c0 22-18 40-40 40H172c-22 0-40-18-40-40V142Z"/>
  <path fill="#ccfbf1" d="M172 160c0-10 8-18 18-18h132c10 0 18 8 18 18v42c0 10-8 18-18 18H190c-10 0-18-8-18-18v-42Z"/>
  <path fill="#0f766e" d="M184 266a22 22 0 1 1 44 0 22 22 0 0 1-44 0Zm50 0a22 22 0 1 1 44 0 22 22 0 0 1-44 0Zm50 0a22 22 0 1 1 44 0 22 22 0 0 1-44 0ZM184 324a22 22 0 1 1 44 0 22 22 0 0 1-44 0Zm50 0a22 22 0 1 1 44 0 22 22 0 0 1-44 0Zm50 0a22 22 0 1 1 44 0 22 22 0 0 1-44 0Z"/>
</svg>
